<?xml version="1.0" encoding="UTF-8" standalone="no"?>
<svg
   xmlns:dc="http://purl.org/dc/elements/1.1/"
   xmlns:cc="http://creativecommons.org/ns#"
   xmlns:rdf="http://www.w3.org/1999/02/22-rdf-syntax-ns#"
   xmlns:svg="http://www.w3.org/2000/svg"
   xmlns="http://www.w3.org/2000/svg"
   xmlns:sodipodi="http://sodipodi.sourceforge.net/DTD/sodipodi-0.dtd"
   xmlns:inkscape="http://www.inkscape.org/namespaces/inkscape"
   width="100"
   height="100"
   id="svg3462"
   version="1.1"
   inkscape:version="0.91 r13725"
   sodipodi:docname="calendar.svg">
  <metadata
     id="metadata3484">
    <rdf:RDF>
      <cc:Work
         rdf:about="">
        <dc:format>image/svg+xml</dc:format>
        <dc:type
           rdf:resource="http://purl.org/dc/dcmitype/StillImage" />
        <dc:title></dc:title>
      </cc:Work>
    </rdf:RDF>
  </metadata>
  <defs
     id="defs3482" />
  <sodipodi:namedview
     pagecolor="#ffffff"
     bordercolor="#666666"
     borderopacity="1"
     objecttolerance="10"
     gridtolerance="10"
     guidetolerance="10"
     inkscape:pageopacity="0"
     inkscape:pageshadow="2"
     inkscape:window-width="1301"
     inkscape:window-height="744"
     id="namedview3480"
     showgrid="false"
     showguides="true"
     inkscape:guide-bbox="true"
     inkscape:zoom="4.2921382"
     inkscape:cx="25.172251"
     inkscape:cy="54.468874"
     inkscape:window-x="65"
     inkscape:window-y="24"
     inkscape:window-maximized="1"
     inkscape:current-layer="svg3462">
    <sodipodi:guide
       position="44.645799,69.192751"
       orientation="0,1"
       id="guide3494" />
  </sodipodi:namedview>
  <path
     fill="#EBEDED"
     d="M100 95c0 2.761-2.239 5-5 5h-90c-2.761 0-5-2.239-5-5v-90c0-2.761 2.239-5 5-5h90c2.761 0 5 2.239 5 5v90z"
     id="path3464" />
  <path
     fill="#D4D7DA"
     d="M95 97h-90c-2.761 0-5-2.239-5-5v3c0 2.761 2.239 5 5 5h90c2.761 0 5-2.239 5-5v-3c0 2.761-2.239 5-5 5z"
     id="path3466" />
  <path
     fill="#E64C3C"
     d="M0 31v-26c0-2.761 2.239-5 5-5h90c2.761 0 5 2.239 5 5v26h-100z"
     id="path3468" />
  <rect
     y="28"
     fill="#C03A2B"
     width="100"
     height="2.75"
     id="rect3470" />
  <g
     enable-background="new"
     fill="#fff"
     id="g3472">
    <path
       d="M30.344 8.576l2.672 7.855h.032l2.528-7.855h3.536v11.424h-2.352v-8.096h-.032l-2.8 8.096h-1.936l-2.8-8.016h-.032v8.016h-2.352v-11.424h3.536zM41.384 12.944c.234-.353.533-.635.896-.849.362-.213.771-.365 1.224-.456.453-.09.909-.136 1.368-.136.416 0 .837.029 1.264.088s.816.174 1.168.344c.352.171.64.408.864.713.224.304.336.706.336 1.208v4.304c0 .373.021.73.064 1.072.042.341.117.597.224.768h-2.304l-.104-.392-.056-.408c-.363.373-.79.635-1.28.784-.491.148-.992.224-1.504.224-.395 0-.763-.048-1.104-.144-.342-.097-.64-.246-.896-.448-.256-.203-.456-.459-.6-.769-.144-.309-.216-.677-.216-1.104 0-.47.083-.856.248-1.16.166-.304.379-.547.64-.728.261-.182.56-.317.896-.408s.675-.163 1.016-.216c.341-.054.677-.097 1.008-.129.331-.031.624-.079.88-.144.256-.063.458-.157.608-.28.149-.122.218-.301.208-.536 0-.245-.04-.439-.12-.584-.08-.144-.187-.256-.32-.336-.134-.08-.288-.133-.464-.159-.176-.027-.365-.04-.568-.04-.448 0-.8.096-1.056.287-.256.192-.405.513-.448.961h-2.272c.032-.533.165-.975.4-1.327zm4.488 3.208c-.144.048-.298.088-.464.12l-.52.079-.544.08c-.171.032-.339.075-.504.128-.166.054-.31.126-.432.217s-.221.205-.296.344-.112.315-.112.528c0 .202.037.373.112.512s.176.248.304.328c.128.08.277.136.448.168.17.032.347.048.528.048.448 0 .795-.074 1.04-.224.246-.149.427-.328.544-.536.118-.208.189-.419.216-.633.026-.213.04-.384.04-.512v-.848c-.096.086-.216.153-.36.201zM52.424 11.728v1.536h.032c.106-.256.25-.493.432-.712.182-.218.39-.405.624-.56s.485-.274.752-.36c.267-.085.544-.128.832-.128.149 0 .314.026.496.08v2.112l-.384-.057-.433-.023c-.416 0-.768.069-1.056.208s-.521.328-.696.567c-.176.24-.302.521-.376.841-.074.319-.111.666-.111 1.04v3.728h-2.272v-8.272h2.16zM60.151 13.216c-.362 0-.666.083-.912.248-.245.166-.445.379-.6.64-.154.262-.264.55-.328.864-.063.315-.096.627-.096.937 0 .299.032.603.096.912.064.31.168.589.312.84s.338.456.584.616c.245.159.544.239.896.239.544 0 .963-.151 1.256-.456.294-.304.478-.712.553-1.224h2.191c-.149 1.099-.576 1.936-1.28 2.512-.703.576-1.605.864-2.703.864-.619 0-1.188-.104-1.704-.312-.518-.208-.958-.499-1.32-.872-.362-.374-.646-.819-.848-1.336-.203-.518-.305-1.086-.305-1.704 0-.641.094-1.235.28-1.784.187-.55.461-1.024.824-1.424.362-.4.805-.712 1.328-.937.522-.224 1.12-.336 1.792-.336.49 0 .962.064 1.416.192.453.128.858.322 1.216.584.357.261.647.587.872.976.224.39.352.851.384 1.384h-2.224c-.148-.949-.709-1.423-1.68-1.423zM67.655 8.576v4.304h.048c.288-.479.656-.829 1.104-1.048.447-.219.885-.328 1.312-.328.608 0 1.106.083 1.496.248.39.166.696.395.92.688.225.293.382.65.472 1.071.091.422.137.889.137 1.4v5.089h-2.272v-4.672c0-.683-.106-1.192-.319-1.528-.214-.336-.593-.504-1.137-.504-.618 0-1.066.185-1.344.552-.277.368-.416.974-.416 1.816v4.336h-2.272v-11.424h2.271z"
       id="path3474" />
  </g>
  <text
     xml:space="preserve"
     style="font-style:normal;font-weight:normal;font-size:43.36244965px;line-height:125%;font-family:sans-serif;letter-spacing:0px;word-spacing:0px;fill:#35495e;fill-opacity:1;stroke:none;stroke-width:1px;stroke-linecap:butt;stroke-linejoin:miter;stroke-opacity:1"
     x="23.667948"
     y="75.113037"
     id="text3486"
     sodipodi:linespacing="125%"
     transform="scale(0.98537507,1.014842)"><tspan
       sodipodi:role="line"
       id="tspan3488"
       x="23.667948"
       y="75.113037"
       style="font-style:normal;font-variant:normal;font-weight:normal;font-stretch:normal;font-family:'Arial Black';-inkscape-font-specification:'Arial Black, ';fill:#35495e;fill-opacity:1">04</tspan></text>
  <text
     xml:space="preserve"
     style="font-style:normal;font-weight:normal;font-size:40px;line-height:125%;font-family:sans-serif;letter-spacing:0px;word-spacing:0px;fill:#000000;fill-opacity:1;stroke:none;stroke-width:1px;stroke-linecap:butt;stroke-linejoin:miter;stroke-opacity:1"
     x="39.044479"
     y="45.140034"
     id="text3490"
     sodipodi:linespacing="125%"><tspan
       sodipodi:role="line"
       id="tspan3492"
       x="39.044479"
       y="45.140034" /></text>
</svg>
